# xmcd
#
# Track frame offsets:
#	150
#	15590
#	29456
#	47786
#	62530
#	78680
#	95704
#	109388
#	124213
#	140487
#	155467
#	166954
#	180760
#	195309
#	210128
#	225458
#	235876
#
# Disc length: 3352 seconds
#
# Revision: 0
# Processed by: cddbd v1.5.1PL0 Copyright (c) Steve Scherf et al.
# Submitted via: EasyCDDAExtractor 8.1.4.1
#
DISCID=d70d1611
DTITLE=Campesinos - O Marretao
DYEAR=2005
DGENRE=Gaucho
TTITLE0=O Marretao
TTITLE1=A Jiboia
TTITLE2=Chuva E Saudade
TTITLE3=E Sexta Feira
TTITLE4=Foi Tao Bom_Quem Foi Que Disse
TTITLE5=A Bruxa
TTITLE6=Pode Chegar_Vanera
TTITLE7=So Quero Dizer Que Te Amo
TTITLE8=Como Vou Viver Agora
TTITLE9=Na Onda Do Batidao
TTITLE10=Do Jeito Que Da
TTITLE11=Hei Voce Ai
TTITLE12=Xucra Domacao
TTITLE13=E Dia De Festa
TTITLE14=Aos Fas Domingueiros
TTITLE15=Hei Tche
TTITLE16=Misturando
EXTD=
EXTT0=
EXTT1=
EXTT2=
EXTT3=
EXTT4=
EXTT5=
EXTT6=
EXTT7=
EXTT8=
EXTT9=
EXTT10=
EXTT11=
EXTT12=
EXTT13=
EXTT14=
EXTT15=
EXTT16=
PLAYORDER=
